<svg width="18" height="19" viewBox="0 0 18 19" fill="none" xmlns="http://www.w3.org/2000/svg">
<path d="M11.14 9.69265L17.3751 3.47117C17.6482 3.19809 17.8016 2.82771 17.8016 2.44151C17.8016 2.05532 17.6482 1.68493 17.3751 1.41185C17.1021 1.13877 16.7317 0.985352 16.3456 0.985352C15.9595 0.985352 15.5891 1.13877 15.3161 1.41185L9.0955 7.64783L2.87491 1.41185C2.60186 1.13877 2.23154 0.985352 1.84539 0.985352C1.45925 0.985352 1.08892 1.13877 0.815877 1.41185C0.542832 1.68493 0.389438 2.05532 0.389437 2.44151C0.389437 2.82771 0.542832 3.19809 0.815877 3.47117L7.05097 9.69265L0.815877 15.9141C0.679969 16.0489 0.572096 16.2093 0.49848 16.3861C0.424864 16.5628 0.386963 16.7523 0.386963 16.9438C0.386963 17.1352 0.424864 17.3248 0.49848 17.5015C0.572096 17.6782 0.679969 17.8386 0.815877 17.9734C0.950675 18.1094 1.11105 18.2173 1.28775 18.2909C1.46445 18.3645 1.65397 18.4024 1.84539 18.4024C2.03681 18.4024 2.22634 18.3645 2.40304 18.2909C2.57974 18.2173 2.74011 18.1094 2.87491 17.9734L9.0955 11.7375L15.3161 17.9734C15.4509 18.1094 15.6113 18.2173 15.788 18.2909C15.9647 18.3645 16.1542 18.4024 16.3456 18.4024C16.537 18.4024 16.7266 18.3645 16.9033 18.2909C17.08 18.2173 17.2403 18.1094 17.3751 17.9734C17.511 17.8386 17.6189 17.6782 17.6925 17.5015C17.7661 17.3248 17.804 17.1352 17.804 16.9438C17.804 16.7523 17.7661 16.5628 17.6925 16.3861C17.6189 16.2093 17.511 16.0489 17.3751 15.9141L11.14 9.69265Z" fill="#D1D1D1"/>
</svg>
