<svg width="8" height="6" viewBox="0 0 8 6" fill="none" xmlns="http://www.w3.org/2000/svg">
<path d="M3.9027 5.84339C3.75335 5.84263 3.60604 5.80864 3.47146 5.74388C3.33687 5.67912 3.21839 5.58521 3.12461 5.46897L0.661642 2.48532C0.517722 2.3057 0.427154 2.08926 0.400261 1.86067C0.373368 1.63207 0.411231 1.40052 0.509535 1.19241C0.589262 1.01153 0.719369 0.857426 0.884316 0.748499C1.04926 0.639572 1.24208 0.580426 1.43973 0.578125H6.36567C6.56333 0.580426 6.75614 0.639572 6.92109 0.748499C7.08604 0.857426 7.21614 1.01153 7.29587 1.19241C7.39418 1.40052 7.43204 1.63207 7.40515 1.86067C7.37825 2.08926 7.28768 2.3057 7.14376 2.48532L4.68079 5.46897C4.58701 5.58521 4.46853 5.67912 4.33395 5.74388C4.19937 5.80864 4.05206 5.84263 3.9027 5.84339Z" fill="#FCC822"/>
</svg>
