<svg width="16" height="20" viewBox="0 0 16 20" fill="none" xmlns="http://www.w3.org/2000/svg">
<path d="M0.900282 16.5867C0.239993 13.0006 2.79616 10.9338 4.30005 9.99258C1.30712 6.98126 2.67562 2.95489 4.30005 1.6092C6.19019 0.043399 9.57348 -0.667883 11.7825 2.02203C14.5103 5.34368 12.9196 8.66445 11.7825 9.99258C12.5162 10.6384 15.0381 12.3172 15.4079 15.7678C15.8745 20.1215 1.72564 21.0693 0.900282 16.5867Z" fill="#FCC822"/>
<path d="M0.900282 16.5867C0.239993 13.0006 2.79616 10.9338 4.30005 9.99258C1.30712 6.98126 2.67562 2.95489 4.30005 1.6092C6.19019 0.043399 9.57348 -0.667883 11.7825 2.02203C14.5103 5.34368 12.9196 8.66445 11.7825 9.99258C12.5162 10.6384 15.0381 12.3172 15.4079 15.7678C15.8745 20.1215 1.72564 21.0693 0.900282 16.5867Z" stroke="#FCC822" stroke-width="0.29778"/>
</svg>
